<svg width="115" height="115" viewBox="0 0 115 115" fill="none" xmlns="http://www.w3.org/2000/svg">
<path d="M112.015 51.8533L63.1185 2.94002C60.0189 -0.160669 54.9821 -0.160669 51.8825 2.94002L2.98655 51.8533C-0.113031 54.954 -0.113031 59.9926 2.98655 63.0933L51.8825 112.007C54.9821 115.107 60.0189 115.107 63.1185 112.007L112.015 63.0933C115.037 59.9926 115.037 54.954 112.015 51.8533ZM61.5687 97.3558C59.3215 99.6038 55.602 99.6038 53.3548 97.3558L17.5546 61.543C15.3074 59.295 15.3074 55.5741 17.5546 53.3261L53.3548 17.5132C55.602 15.2652 59.3215 15.2652 61.5687 17.5132L97.369 53.3261C99.6162 55.5741 99.6162 59.295 97.369 61.543L61.5687 97.3558Z" fill="#C5B582"/>
<path d="M82.336 92.6274L79.0039 95.9607C80.1663 94.7979 81.3286 93.7127 82.336 92.6274Z" fill="#958E62"/>
<path d="M112.092 51.9309C105.273 45.1094 92.5645 32.4742 92.5645 32.4742C93.6494 33.5594 94.7343 34.6446 95.8966 35.8074L92.5645 32.4742C66.0631 6.73848 55.602 15.0328 53.7422 17.0482C53.5873 17.1258 53.4323 17.2808 53.3548 17.4358L17.4771 53.3262C15.2299 55.5742 15.2299 59.2951 17.4771 61.5431L53.3548 97.4335C55.602 99.6815 59.3215 99.6815 61.5687 97.4335L97.4464 61.5431C99.5386 59.4501 99.6936 56.2719 97.9888 53.9464C100.236 56.3494 107.133 67.0468 82.3359 92.5499L111.937 62.9384C114.959 59.9927 115.269 55.1091 112.092 51.9309ZM86.6753 60.4578L60.4063 86.7361C58.7791 88.364 56.067 88.364 54.3622 86.7361L28.0932 60.4578C26.4659 58.83 26.4659 56.1169 28.0932 54.4115L54.3622 28.1332C55.9895 26.5053 58.7016 26.5053 60.4063 28.1332L86.6753 54.4115C88.3801 56.1169 88.3801 58.83 86.6753 60.4578Z" fill="#958E62"/>
<path d="M39.0969 31.5439L41.4992 29.1409C40.6468 29.9936 39.8718 30.7688 39.0969 31.5439Z" fill="#C5B582"/>
<path d="M31.5805 75.6512C30.8056 74.876 29.9532 74.1008 29.1783 73.2481L31.5805 75.6512C53.2001 96.6583 60.3291 86.7361 60.3291 86.7361L60.4066 86.6586C58.5468 88.364 55.9897 88.2864 54.3624 86.6586L28.0159 60.3028C28.0159 60.3028 18.0197 53.1712 39.0969 31.5439L17.3998 53.2487C15.1526 55.4967 14.9976 59.0625 17.3223 61.388" fill="#C5B582"/>
<path d="M32.5879 22.2417L35.9199 18.9084C34.6801 20.0712 33.5953 21.1564 32.5879 22.2417Z" fill="#023756"/>
<path d="M75.7495 83.2477C74.9746 84.0228 74.1997 84.8755 73.3474 85.6507L75.7495 83.2477C97.1367 61.7754 86.8306 54.4888 86.8306 54.4888L86.753 54.4113C88.4578 56.2717 88.3803 58.8298 86.753 60.4576L60.4065 86.8134C60.4065 86.8134 53.82 95.9605 34.1376 78.054L17.4773 61.3878C17.4773 61.3878 3.91665 51.6982 32.5878 22.2417L2.98672 51.8532C-0.0353745 54.8764 -0.345295 59.76 2.83178 62.9382C9.65087 69.7597 51.7277 111.851 51.7277 111.851C51.7277 111.851 51.7277 111.851 51.7277 111.774L22.2817 82.3175C21.1968 81.2322 20.1119 80.147 18.9496 78.9842L22.2817 82.3175C47.9307 107.278 58.6243 100.224 60.949 97.9759C61.104 97.8209 61.259 97.6658 61.4139 97.5108C66.4508 92.5497 75.7495 83.2477 75.7495 83.2477Z" fill="#023756"/>
<path d="M22.2816 82.395L18.9495 79.0618C20.1118 80.2245 21.1967 81.3098 22.2816 82.395Z" fill="#0F666D"/>
<path d="M111.782 63.1708L82.3361 92.6273C81.2513 93.7126 80.1664 94.7978 79.004 95.9606L82.3361 92.6273C107.133 67.1242 100.314 56.4269 98.0666 54.0238C97.9116 53.8688 97.7565 53.6362 97.6016 53.4812C93.8821 49.7604 87.8379 43.7916 84.9708 40.8459C85.2033 41.0785 85.5132 41.3885 85.7457 41.6211L83.3435 39.218C61.7239 18.2109 54.5948 28.1331 54.5948 28.1331L54.5173 28.2106C56.3771 26.5053 58.9343 26.5828 60.5616 28.2106L86.9081 54.5665C86.9081 54.5665 95.8193 61.0004 78.8491 80.0696L61.4914 97.4334C61.4914 97.4334 51.8052 110.999 22.3591 82.3176L51.9602 111.929C54.9823 114.952 59.8641 115.262 63.0412 112.084C69.7053 105.34 111.86 63.1708 111.782 63.1708Z" fill="#0F666D"/>
<path d="M83.2659 39.218C83.2659 39.218 83.8859 39.8382 84.8932 40.8459C84.3508 40.3033 83.8083 39.7606 83.2659 39.218Z" fill="#0F666D"/>
</svg>
