<svg width="51" height="50" viewBox="0 0 51 50" fill="none" xmlns="http://www.w3.org/2000/svg">
<g clip-path="url(#clip0_2896_4533)">
<mask id="mask0_2896_4533" style="mask-type:luminance" maskUnits="userSpaceOnUse" x="0" y="0" width="51" height="50">
<path d="M50.5208 0H0.715332V50H50.5208V0Z" fill="white"/>
</mask>
<g mask="url(#mask0_2896_4533)">
<path d="M50.5208 0H0.715332V50H50.5208V0Z" fill="#6644FF"/>
<path d="M0.715332 41.6428V0H50.5208V50H48.7444C46.6715 48.8852 43.6072 47.5882 39.2651 46.5029C35.0799 45.4568 28.8812 44.9556 22.2922 44.423C14.8114 43.8182 6.8273 43.1727 0.715332 41.6428Z" fill="#754DFC"/>
<path d="M0.715332 30.6772V0H50.5208V42.0315C48.7445 40.7038 45.2191 38.5992 39.0674 36.838C34.9207 35.6509 28.7426 34.9399 22.1754 34.1842C14.7232 33.3267 6.7699 32.4115 0.715332 30.6772Z" fill="#8555F8"/>
<path d="M0.715332 18.7295V0H50.5208V32.1801C48.9762 30.8442 45.473 28.3807 38.8096 26.2188C34.7069 24.8876 28.5574 23.9615 22.0206 22.977C14.6108 21.8611 6.70337 20.6703 0.715332 18.7295Z" fill="#945EF5"/>
<path d="M50.5208 0V22.9082C49.1564 21.6201 45.6906 18.9225 38.6536 16.5027C34.5748 15.1001 28.4424 14.0669 21.9237 12.9685C14.5426 11.7248 6.6663 10.3977 0.715332 8.35652V0H50.5208Z" fill="#A366F1"/>
<path d="M9.03027 0H50.5205V13.525C49.7652 12.658 46.4926 9.35535 38.2339 6.35331C34.1801 4.87977 28.0667 3.73963 21.5683 2.52767C17.4 1.7503 13.0734 0.943385 9.03027 0Z" fill="#B36EEE"/>
<g filter="url(#filter0_dd_2896_4533)">
<path fill-rule="evenodd" clip-rule="evenodd" d="M37.277 28.1323C37.0964 28.0872 36.9459 28.042 36.8105 27.9818C36.7104 27.9373 36.6267 27.8846 36.5534 27.8237C36.5048 27.7832 36.4838 27.7194 36.4899 27.6564C36.5625 26.9004 36.4826 26.2336 36.5547 25.484C36.8557 22.4445 38.7669 23.4075 40.4825 22.911C41.4676 22.6335 42.4528 22.0874 42.8127 21.0132C42.8717 20.8374 42.8198 20.6462 42.6973 20.5069C41.5735 19.2293 40.3294 18.1004 38.9776 17.133C34.4456 13.9068 28.5558 12.5671 23.1468 13.3507C22.9419 13.3804 22.8345 13.6074 22.9465 13.7815C23.6315 14.8474 24.5353 15.7197 25.5717 16.3617C25.7601 16.4784 25.6844 16.7304 25.4682 16.6819C24.9599 16.568 24.3068 16.3458 23.6926 15.9124C23.6334 15.8707 23.5571 15.8601 23.4899 15.887C23.2153 15.9964 22.8188 16.1543 22.4911 16.2958C22.3025 16.3772 22.264 16.6204 22.4193 16.755C25.1361 19.1096 29.0883 19.4675 32.183 17.5832C32.3715 17.4684 32.6734 17.7043 32.6126 17.9165C32.5154 18.2564 32.4018 18.7236 32.2808 19.3599C31.5133 23.242 29.3011 22.9411 26.5622 21.963C21.0894 19.9798 17.9846 21.6733 15.2242 18.3208C15.0324 18.0878 14.6952 18.007 14.4671 18.2045C13.8972 18.6978 13.56 19.4178 13.56 20.1875C13.56 21.0991 14.0306 21.8799 14.7282 22.3473C14.8154 22.4058 14.9314 22.3811 14.9964 22.2987C15.1664 22.0836 15.3055 21.941 15.4786 21.8508C15.6681 21.7521 15.7606 22.0232 15.6006 22.1648C15.0143 22.6838 14.8461 23.3021 14.4629 24.521C13.8609 26.4319 14.1168 28.3881 11.3026 28.8997C9.81279 28.9749 9.84289 29.9831 9.30111 31.4877C8.67237 33.3039 7.84907 34.1083 6.32529 35.6954C6.11692 35.9124 6.09902 36.2595 6.32806 36.4547C6.93672 36.9733 7.56444 37.0018 8.20257 36.7391C9.78268 36.0771 11.0016 34.0307 12.1454 32.7066C13.4246 31.2319 16.4945 31.8639 18.8121 30.4194C20.0619 29.6531 20.8129 28.6743 20.5728 27.208C20.534 26.9718 20.8043 26.8299 20.9023 27.0482C21.0884 27.4627 21.2104 27.9048 21.2611 28.3617C21.2744 28.4814 21.3815 28.57 21.5018 28.5633C24.0092 28.4223 27.2516 31.1875 30.2818 31.9357C30.4661 31.9813 30.5972 31.7684 30.4929 31.6097C30.3013 31.3178 30.1383 31.0149 30.0084 30.7053C29.8744 30.3837 29.7728 30.0717 29.7011 29.7705C29.6449 29.535 29.989 29.4717 30.1066 29.6835C30.8837 31.0841 32.4368 32.3993 34.5983 32.5561C35.3357 32.6163 36.1484 32.526 36.9911 32.2702C37.9994 31.9692 38.9324 31.578 40.046 31.7887C40.8737 31.9391 41.6412 32.3604 42.1228 33.0677C42.7985 34.053 44.225 34.3141 44.9852 33.2843C45.0887 33.1442 45.0974 32.9568 45.029 32.7966C43.3549 28.8732 39.1042 28.6037 37.277 28.1323Z" fill="white"/>
</g>
</g>
</g>
<defs>
<filter id="filter0_dd_2896_4533" x="-53.8374" y="-34.8677" width="158.911" height="143.77" filterUnits="userSpaceOnUse" color-interpolation-filters="sRGB">
<feFlood flood-opacity="0" result="BackgroundImageFix"/>
<feColorMatrix in="SourceAlpha" type="matrix" values="0 0 0 0 0 0 0 0 0 0 0 0 0 0 0 0 0 0 127 0" result="hardAlpha"/>
<feOffset dy="12"/>
<feGaussianBlur stdDeviation="30"/>
<feColorMatrix type="matrix" values="0 0 0 0 0.0901961 0 0 0 0 0.160784 0 0 0 0 0.25098 0 0 0 0.1 0"/>
<feBlend mode="normal" in2="BackgroundImageFix" result="effect1_dropShadow_2896_4533"/>
<feColorMatrix in="SourceAlpha" type="matrix" values="0 0 0 0 0 0 0 0 0 0 0 0 0 0 0 0 0 0 127 0" result="hardAlpha"/>
<feOffset dy="16"/>
<feColorMatrix type="matrix" values="0 0 0 0 0.0901961 0 0 0 0 0.160784 0 0 0 0 0.25098 0 0 0 0.1 0"/>
<feBlend mode="normal" in2="effect1_dropShadow_2896_4533" result="effect2_dropShadow_2896_4533"/>
<feBlend mode="normal" in="SourceGraphic" in2="effect2_dropShadow_2896_4533" result="shape"/>
</filter>
<clipPath id="clip0_2896_4533">
<rect width="49.8054" height="50" fill="white" transform="translate(0.715332)"/>
</clipPath>
</defs>
</svg>
