<svg width="77" height="50" viewBox="0 0 77 50" fill="none" xmlns="http://www.w3.org/2000/svg">
<g clip-path="url(#clip0_2896_6508)">
<path d="M43.3401 49.711H71.6633C72.563 49.711 73.4467 49.4816 74.2258 49.0453C74.9999 48.6138 75.6468 47.9861 76.1014 47.2253C76.5497 46.4736 76.7867 45.6148 76.7872 44.7396C76.7872 43.867 76.5494 43.0101 76.0991 42.2545L57.0782 10.2976C56.6236 9.53715 55.9768 8.90969 55.2029 8.47828C54.4199 8.0409 53.5379 7.81158 52.641 7.81221C51.7413 7.81221 50.858 8.04197 50.0788 8.47828C49.305 8.90971 48.6584 9.53717 48.2038 10.2976L43.3401 18.4741L33.8312 2.48482C33.3762 1.7244 32.7291 1.09706 31.955 0.665775C31.1718 0.228555 30.2895 -0.000659773 29.3925 1.42644e-06C28.4931 1.42644e-06 27.6092 0.229763 26.83 0.665775C26.056 1.0971 25.4091 1.72444 24.9541 2.48482L1.28418 42.2545C0.835061 43.0057 0.597505 43.8644 0.59668 44.7396C0.59668 45.6122 0.832692 46.4697 1.28239 47.2253C1.73702 47.9861 2.3839 48.6137 3.15799 49.0453C3.94119 49.4826 4.82345 49.7118 5.72049 49.711H23.4994C30.5437 49.711 35.7383 46.7098 39.313 40.8545L47.9913 26.2762L52.6395 18.4741L66.5901 41.9092H47.9913L43.3401 49.711ZM23.2092 41.9015L10.802 41.8985L29.4008 10.6536L38.6809 26.2762L32.4675 36.7179C30.0937 40.517 27.397 41.9012 23.2095 41.9012L23.2092 41.9015Z" fill="#00DC82"/>
</g>
<defs>
<clipPath id="clip0_2896_6508">
<rect width="76.1905" height="50" fill="white" transform="translate(0.59668)"/>
</clipPath>
</defs>
</svg>
