<svg width="51" height="50" viewBox="0 0 51 50" fill="none" xmlns="http://www.w3.org/2000/svg">
<g clip-path="url(#clip0_2896_6472)">
<path d="M0.305176 17.3334C0.305176 9.1623 0.305176 5.07676 2.84365 2.53848C5.38193 0 9.46729 0 17.6386 0H32.972C41.1429 0 45.2282 0 47.7669 2.53848C50.3052 5.07676 50.3052 9.16211 50.3052 17.3334V32.6668C50.3052 40.8377 50.3052 44.923 47.7667 47.4617C45.2282 50 41.1431 50 32.9718 50H17.6388C9.46768 50 5.38213 50 2.84385 47.4615C0.305176 44.923 0.305176 40.8379 0.305176 32.6666V17.3334Z" fill="#4945FF"/>
<path d="M34.8051 15.1666H17.9717V23.75H26.5551V32.3332H35.1383V15.5C35.1383 15.3158 34.9891 15.1666 34.8051 15.1666Z" fill="white"/>
<path d="M26.2217 23.75H26.5551V24.0834H26.2217V23.75Z" fill="white"/>
<path d="M17.972 23.75H26.222C26.4061 23.75 26.5554 23.8992 26.5554 24.0832V32.3332H18.3054C18.2616 32.3333 18.2182 32.3247 18.1778 32.3079C18.1373 32.2912 18.1006 32.2666 18.0696 32.2357C18.0387 32.2048 18.0141 32.168 17.9973 32.1276C17.9806 32.0871 17.972 32.0438 17.972 32V23.75ZM26.5554 32.3332H35.1386L26.8397 40.6321C26.7349 40.7371 26.5554 40.6627 26.5554 40.5145V32.3332ZM17.972 23.75H9.79091C9.64247 23.75 9.56825 23.5703 9.67313 23.4655L17.972 15.1666V23.75Z" fill="#9593FF"/>
</g>
<defs>
<clipPath id="clip0_2896_6472">
<rect width="50" height="50" fill="white" transform="translate(0.305176)"/>
</clipPath>
</defs>
</svg>
