<svg width="49" height="50" viewBox="0 0 49 50" fill="none" xmlns="http://www.w3.org/2000/svg">
<g clip-path="url(#clip0_2896_4222)">
<path d="M28.6893 48.7982C27.424 50.3915 24.8586 49.5185 24.8281 47.484L24.3823 17.7268H44.391C48.0152 17.7268 50.0364 21.9127 47.7829 24.751L28.6893 48.7982Z" fill="url(#paint0_linear_2896_4222)"/>
<path d="M28.6893 48.7982C27.424 50.3915 24.8586 49.5185 24.8281 47.484L24.3823 17.7268H44.391C48.0152 17.7268 50.0364 21.9127 47.7829 24.751L28.6893 48.7982Z" fill="url(#paint1_linear_2896_4222)" fill-opacity="0.2"/>
<path d="M20.5516 0.916082C21.8169 -0.677458 24.3824 0.195687 24.4128 2.23023L24.6082 31.9874H4.84989C1.22566 31.9874 -0.795633 27.8015 1.45802 24.9632L20.5516 0.916082Z" fill="#3ECF8E"/>
</g>
<defs>
<linearGradient id="paint0_linear_2896_4222" x1="24.3823" y1="24.3247" x2="42.1654" y2="31.7829" gradientUnits="userSpaceOnUse">
<stop stop-color="#249361"/>
<stop offset="1" stop-color="#3ECF8E"/>
</linearGradient>
<linearGradient id="paint1_linear_2896_4222" x1="16.4983" y1="13.53" x2="24.6083" y2="28.7967" gradientUnits="userSpaceOnUse">
<stop/>
<stop offset="1" stop-opacity="0"/>
</linearGradient>
<clipPath id="clip0_2896_4222">
<rect width="48.2301" height="50" fill="white" transform="translate(0.5)"/>
</clipPath>
</defs>
</svg>
