<svg width="51" height="50" viewBox="0 0 51 50" fill="none" xmlns="http://www.w3.org/2000/svg">
<path d="M10.5112 12C10.5112 12 14.6223 17.3333 25.8445 20.5556C25.8445 20.5556 34.1778 22.8889 38.0667 27.4444C38.0667 27.4444 41.9556 30.4444 43.4001 41C43.4001 41 40.1778 34.7778 30.8445 32.3333C30.8445 32.3333 21.0667 29.8889 18.5112 28.4444C15.9556 27 13.0667 24.4444 11.9556 20.8889C10.8445 17.3333 10.289 13.2222 10.5112 12Z" fill="#039FF4"/>
<path d="M5.7334 25.5555C5.7334 25.5555 10.289 29.3333 15.8445 31.3333C15.8445 31.3333 20.4001 33.3333 26.9556 34.3333C26.9556 34.3333 32.9556 35.5555 36.1778 37.4444C36.1778 37.4444 41.7334 40.6667 44.5112 48.8889C44.5112 48.8889 41.7334 45.2222 36.7334 44.3333C36.7334 44.3333 33.8445 43.2222 25.289 42.8889C25.289 42.8889 19.0667 43 13.4001 39.4444C13.4001 39.4444 9.28895 37.1111 6.95562 29.8889C6.62229 29.8889 5.84451 27.5555 5.7334 25.5555Z" fill="#028DF1"/>
<path d="M21.4004 1C21.4004 1 24.2893 5.44444 29.4004 8.11111C29.4004 8.11111 34.1781 10.7778 36.8448 13.6667C36.8448 13.6667 39.2892 15.8889 40.9559 20.5556C40.9559 20.5556 41.9559 23.1111 42.2892 28.6667C42.2892 28.6667 40.067 24.6667 38.067 23.3333C38.067 23.3333 35.8448 21.5556 33.067 20.1111C30.2893 18.6667 27.8448 17.5556 25.7337 15.5556C23.6226 13.5556 22.067 11.2222 21.6226 8.66667C21.1781 6.11111 21.1781 2.77778 21.4004 1Z" fill="#4FBCF7"/>
</svg>
